<svg width="12" height="12" viewBox="0 0 12 12" fill="none" xmlns="http://www.w3.org/2000/svg">
<path d="M1.33333 12C0.966667 12 0.652778 11.8694 0.391667 11.6083C0.130556 11.3472 0 11.0333 0 10.6667V0.666667C0 0.477778 0.0638889 0.319444 0.191667 0.191667C0.319444 0.0638889 0.477778 0 0.666667 0C0.855556 0 1.01389 0.0638889 1.14167 0.191667C1.26944 0.319444 1.33333 0.477778 1.33333 0.666667V10.6667H11.3333C11.5222 10.6667 11.6806 10.7306 11.8083 10.8583C11.9361 10.9861 12 11.1444 12 11.3333C12 11.5222 11.9361 11.6806 11.8083 11.8083C11.6806 11.9361 11.5222 12 11.3333 12H1.33333ZM2.66667 10C2.47778 10 2.31944 9.93611 2.19167 9.80833C2.06389 9.68056 2 9.52222 2 9.33333V4.66667C2 4.47778 2.06389 4.31944 2.19167 4.19167C2.31944 4.06389 2.47778 4 2.66667 4H4C4.18889 4 4.34722 4.06389 4.475 4.19167C4.60278 4.31944 4.66667 4.47778 4.66667 4.66667V9.33333C4.66667 9.52222 4.60278 9.68056 4.475 9.80833C4.34722 9.93611 4.18889 10 4 10H2.66667ZM6 10C5.81111 10 5.65278 9.93611 5.525 9.80833C5.39722 9.68056 5.33333 9.52222 5.33333 9.33333V1.33333C5.33333 1.14444 5.39722 0.986111 5.525 0.858333C5.65278 0.730556 5.81111 0.666667 6 0.666667H7.33333C7.52222 0.666667 7.68056 0.730556 7.80833 0.858333C7.93611 0.986111 8 1.14444 8 1.33333V9.33333C8 9.52222 7.93611 9.68056 7.80833 9.80833C7.68056 9.93611 7.52222 10 7.33333 10H6ZM9.33333 10C9.14444 10 8.98611 9.93611 8.85833 9.80833C8.73056 9.68056 8.66667 9.52222 8.66667 9.33333V7.33333C8.66667 7.14444 8.73056 6.98611 8.85833 6.85833C8.98611 6.73056 9.14444 6.66667 9.33333 6.66667H10.6667C10.8556 6.66667 11.0139 6.73056 11.1417 6.85833C11.2694 6.98611 11.3333 7.14444 11.3333 7.33333V9.33333C11.3333 9.52222 11.2694 9.68056 11.1417 9.80833C11.0139 9.93611 10.8556 10 10.6667 10H9.33333Z" fill="#F5F5F5"/>
</svg>
