<svg width="20" height="12" viewBox="0 0 20 12" fill="none" xmlns="http://www.w3.org/2000/svg">
<path d="M1.68001 12C1.38535 12 1.13852 11.904 0.939535 11.712C0.739855 11.5207 0.640015 11.2833 0.640015 11C0.640015 10.7167 0.739855 10.4793 0.939535 10.288C1.13852 10.096 1.38535 10 1.68001 10H18.32C18.6147 10 18.8615 10.096 19.0605 10.288C19.2602 10.4793 19.36 10.7167 19.36 11C19.36 11.2833 19.2602 11.5207 19.0605 11.712C18.8615 11.904 18.6147 12 18.32 12H1.68001ZM1.68001 7C1.38535 7 1.13852 6.904 0.939535 6.712C0.739855 6.52067 0.640015 6.28333 0.640015 6C0.640015 5.71667 0.739855 5.479 0.939535 5.287C1.13852 5.09567 1.38535 5 1.68001 5H18.32C18.6147 5 18.8615 5.09567 19.0605 5.287C19.2602 5.479 19.36 5.71667 19.36 6C19.36 6.28333 19.2602 6.52067 19.0605 6.712C18.8615 6.904 18.6147 7 18.32 7H1.68001ZM1.68001 2C1.38535 2 1.13852 1.90433 0.939535 1.713C0.739855 1.521 0.640015 1.28333 0.640015 1C0.640015 0.716667 0.739855 0.479 0.939535 0.287C1.13852 0.0956668 1.38535 0 1.68001 0H18.32C18.6147 0 18.8615 0.0956668 19.0605 0.287C19.2602 0.479 19.36 0.716667 19.36 1C19.36 1.28333 19.2602 1.521 19.0605 1.713C18.8615 1.90433 18.6147 2 18.32 2H1.68001Z" fill="black"/>
</svg>
