<svg width="20" height="20" viewBox="0 0 20 20" fill="none" xmlns="http://www.w3.org/2000/svg">
<path d="M10 12.95L12.775 15.05C12.975 15.2 13.175 15.2083 13.375 15.075C13.575 14.9417 13.6333 14.7583 13.55 14.525L12.5 11.05L15.225 9.1C15.425 8.96667 15.4877 8.78333 15.413 8.55C15.3377 8.31667 15.175 8.2 14.925 8.2H11.6L10.475 4.55C10.3917 4.31667 10.2333 4.2 10 4.2C9.76667 4.2 9.60833 4.31667 9.525 4.55L8.4 8.2H5.075C4.825 8.2 4.66267 8.31667 4.588 8.55C4.51267 8.78333 4.575 8.96667 4.775 9.1L7.5 11.05L6.45 14.525C6.36667 14.7583 6.425 14.9417 6.625 15.075C6.825 15.2083 7.025 15.2 7.225 15.05L10 12.95ZM10 20C8.61667 20 7.31667 19.7373 6.1 19.212C4.88333 18.6873 3.825 17.975 2.925 17.075C2.025 16.175 1.31267 15.1167 0.788 13.9C0.262667 12.6833 0 11.3833 0 10C0 8.61667 0.262667 7.31667 0.788 6.1C1.31267 4.88333 2.025 3.825 2.925 2.925C3.825 2.025 4.88333 1.31233 6.1 0.787C7.31667 0.262333 8.61667 0 10 0C11.3833 0 12.6833 0.262333 13.9 0.787C15.1167 1.31233 16.175 2.025 17.075 2.925C17.975 3.825 18.6873 4.88333 19.212 6.1C19.7373 7.31667 20 8.61667 20 10C20 11.3833 19.7373 12.6833 19.212 13.9C18.6873 15.1167 17.975 16.175 17.075 17.075C16.175 17.975 15.1167 18.6873 13.9 19.212C12.6833 19.7373 11.3833 20 10 20Z" fill="#5D5D5D"/>
</svg>
